<mxfile host="app.diagrams.net" modified="2023-10-11T23:07:24.472Z" agent="Mozilla/5.0 (Windows NT 10.0; Win64; x64) AppleWebKit/537.36 (KHTML, like Gecko) Chrome/116.0.0.0 Safari/537.36 OPR/102.0.0.0" etag="FBVvy7qRU47XIhE6D5lZ" version="22.0.4" type="github">
  <diagram name="Page-1" id="eSTD9mMB3Z255hJTypS5">
    <mxGraphModel dx="807" dy="440" grid="1" gridSize="10" guides="1" tooltips="1" connect="1" arrows="1" fold="1" page="1" pageScale="1" pageWidth="850" pageHeight="1100" math="0" shadow="0">
      <root>
        <mxCell id="0" />
        <mxCell id="1" parent="0" />
        <mxCell id="hi7oUq_OCCF-YMqrnlWd-3" style="edgeStyle=orthogonalEdgeStyle;rounded=0;orthogonalLoop=1;jettySize=auto;html=1;entryX=0.5;entryY=0;entryDx=0;entryDy=0;" edge="1" parent="1" source="hi7oUq_OCCF-YMqrnlWd-1" target="hi7oUq_OCCF-YMqrnlWd-2">
          <mxGeometry relative="1" as="geometry" />
        </mxCell>
        <mxCell id="hi7oUq_OCCF-YMqrnlWd-1" value="start" style="rounded=1;whiteSpace=wrap;html=1;" vertex="1" parent="1">
          <mxGeometry x="80" width="120" height="60" as="geometry" />
        </mxCell>
        <mxCell id="hi7oUq_OCCF-YMqrnlWd-6" style="edgeStyle=orthogonalEdgeStyle;rounded=0;orthogonalLoop=1;jettySize=auto;html=1;" edge="1" parent="1" source="hi7oUq_OCCF-YMqrnlWd-2" target="hi7oUq_OCCF-YMqrnlWd-5">
          <mxGeometry relative="1" as="geometry" />
        </mxCell>
        <mxCell id="hi7oUq_OCCF-YMqrnlWd-2" value="cem = 0&lt;br&gt;" style="rounded=0;whiteSpace=wrap;html=1;" vertex="1" parent="1">
          <mxGeometry x="80" y="100" width="120" height="60" as="geometry" />
        </mxCell>
        <mxCell id="hi7oUq_OCCF-YMqrnlWd-9" style="edgeStyle=orthogonalEdgeStyle;rounded=0;orthogonalLoop=1;jettySize=auto;html=1;entryX=0.5;entryY=0;entryDx=0;entryDy=0;" edge="1" parent="1" source="hi7oUq_OCCF-YMqrnlWd-4" target="hi7oUq_OCCF-YMqrnlWd-8">
          <mxGeometry relative="1" as="geometry" />
        </mxCell>
        <mxCell id="hi7oUq_OCCF-YMqrnlWd-4" value="i%3===0&lt;br&gt;i%5===0" style="rhombus;whiteSpace=wrap;html=1;" vertex="1" parent="1">
          <mxGeometry x="90" y="340" width="100" height="90" as="geometry" />
        </mxCell>
        <mxCell id="hi7oUq_OCCF-YMqrnlWd-7" style="edgeStyle=orthogonalEdgeStyle;rounded=0;orthogonalLoop=1;jettySize=auto;html=1;" edge="1" parent="1" source="hi7oUq_OCCF-YMqrnlWd-5" target="hi7oUq_OCCF-YMqrnlWd-4">
          <mxGeometry relative="1" as="geometry" />
        </mxCell>
        <mxCell id="hi7oUq_OCCF-YMqrnlWd-12" style="edgeStyle=orthogonalEdgeStyle;rounded=0;orthogonalLoop=1;jettySize=auto;html=1;" edge="1" parent="1" source="hi7oUq_OCCF-YMqrnlWd-5" target="hi7oUq_OCCF-YMqrnlWd-13">
          <mxGeometry relative="1" as="geometry">
            <mxPoint x="340" y="500" as="targetPoint" />
          </mxGeometry>
        </mxCell>
        <mxCell id="hi7oUq_OCCF-YMqrnlWd-5" value="&#xa;&lt;span style=&quot;color: rgb(0, 0, 0); font-family: Helvetica; font-size: 12px; font-style: normal; font-variant-ligatures: normal; font-variant-caps: normal; font-weight: 400; letter-spacing: normal; orphans: 2; text-align: center; text-indent: 0px; text-transform: none; widows: 2; word-spacing: 0px; -webkit-text-stroke-width: 0px; background-color: rgb(251, 251, 251); text-decoration-thickness: initial; text-decoration-style: initial; text-decoration-color: initial; float: none; display: inline !important;&quot;&gt;let i =1&lt;/span&gt;&lt;br style=&quot;border-color: var(--border-color); color: rgb(0, 0, 0); font-family: Helvetica; font-size: 12px; font-style: normal; font-variant-ligatures: normal; font-variant-caps: normal; font-weight: 400; letter-spacing: normal; orphans: 2; text-align: center; text-indent: 0px; text-transform: none; widows: 2; word-spacing: 0px; -webkit-text-stroke-width: 0px; background-color: rgb(251, 251, 251); text-decoration-thickness: initial; text-decoration-style: initial; text-decoration-color: initial;&quot;&gt;&lt;span style=&quot;color: rgb(0, 0, 0); font-family: Helvetica; font-size: 12px; font-style: normal; font-variant-ligatures: normal; font-variant-caps: normal; font-weight: 400; letter-spacing: normal; orphans: 2; text-align: center; text-indent: 0px; text-transform: none; widows: 2; word-spacing: 0px; -webkit-text-stroke-width: 0px; background-color: rgb(251, 251, 251); text-decoration-thickness: initial; text-decoration-style: initial; text-decoration-color: initial; float: none; display: inline !important;&quot;&gt;i&amp;lt;=100&lt;/span&gt;&lt;br style=&quot;border-color: var(--border-color); color: rgb(0, 0, 0); font-family: Helvetica; font-size: 12px; font-style: normal; font-variant-ligatures: normal; font-variant-caps: normal; font-weight: 400; letter-spacing: normal; orphans: 2; text-align: center; text-indent: 0px; text-transform: none; widows: 2; word-spacing: 0px; -webkit-text-stroke-width: 0px; background-color: rgb(251, 251, 251); text-decoration-thickness: initial; text-decoration-style: initial; text-decoration-color: initial;&quot;&gt;&lt;span style=&quot;color: rgb(0, 0, 0); font-family: Helvetica; font-size: 12px; font-style: normal; font-variant-ligatures: normal; font-variant-caps: normal; font-weight: 400; letter-spacing: normal; orphans: 2; text-align: center; text-indent: 0px; text-transform: none; widows: 2; word-spacing: 0px; -webkit-text-stroke-width: 0px; background-color: rgb(251, 251, 251); text-decoration-thickness: initial; text-decoration-style: initial; text-decoration-color: initial; float: none; display: inline !important;&quot;&gt;i++&lt;/span&gt;&#xa;&#xa;" style="shape=hexagon;perimeter=hexagonPerimeter2;whiteSpace=wrap;html=1;fixedSize=1;" vertex="1" parent="1">
          <mxGeometry x="80" y="210" width="120" height="80" as="geometry" />
        </mxCell>
        <mxCell id="hi7oUq_OCCF-YMqrnlWd-11" style="edgeStyle=orthogonalEdgeStyle;rounded=0;orthogonalLoop=1;jettySize=auto;html=1;entryX=0;entryY=0.5;entryDx=0;entryDy=0;" edge="1" parent="1" source="hi7oUq_OCCF-YMqrnlWd-8" target="hi7oUq_OCCF-YMqrnlWd-5">
          <mxGeometry relative="1" as="geometry">
            <Array as="points">
              <mxPoint x="10" y="510" />
              <mxPoint x="10" y="250" />
            </Array>
          </mxGeometry>
        </mxCell>
        <mxCell id="hi7oUq_OCCF-YMqrnlWd-8" value="cem+=i" style="rounded=0;whiteSpace=wrap;html=1;" vertex="1" parent="1">
          <mxGeometry x="80" y="480" width="120" height="60" as="geometry" />
        </mxCell>
        <mxCell id="hi7oUq_OCCF-YMqrnlWd-14" style="edgeStyle=orthogonalEdgeStyle;rounded=0;orthogonalLoop=1;jettySize=auto;html=1;" edge="1" parent="1" source="hi7oUq_OCCF-YMqrnlWd-13" target="hi7oUq_OCCF-YMqrnlWd-15">
          <mxGeometry relative="1" as="geometry">
            <mxPoint x="340" y="640" as="targetPoint" />
          </mxGeometry>
        </mxCell>
        <mxCell id="hi7oUq_OCCF-YMqrnlWd-13" value="cem" style="shape=document;whiteSpace=wrap;html=1;boundedLbl=1;" vertex="1" parent="1">
          <mxGeometry x="280" y="460" width="120" height="80" as="geometry" />
        </mxCell>
        <mxCell id="hi7oUq_OCCF-YMqrnlWd-15" value="son" style="rounded=0;whiteSpace=wrap;html=1;" vertex="1" parent="1">
          <mxGeometry x="280" y="610" width="120" height="60" as="geometry" />
        </mxCell>
        <mxCell id="hi7oUq_OCCF-YMqrnlWd-18" style="edgeStyle=orthogonalEdgeStyle;rounded=0;orthogonalLoop=1;jettySize=auto;html=1;entryX=0.5;entryY=0;entryDx=0;entryDy=0;" edge="1" parent="1" source="hi7oUq_OCCF-YMqrnlWd-16" target="hi7oUq_OCCF-YMqrnlWd-17">
          <mxGeometry relative="1" as="geometry" />
        </mxCell>
        <mxCell id="hi7oUq_OCCF-YMqrnlWd-16" value="start" style="rounded=1;whiteSpace=wrap;html=1;" vertex="1" parent="1">
          <mxGeometry x="660" y="75" width="120" height="60" as="geometry" />
        </mxCell>
        <mxCell id="hi7oUq_OCCF-YMqrnlWd-52" style="edgeStyle=orthogonalEdgeStyle;rounded=0;orthogonalLoop=1;jettySize=auto;html=1;entryX=0.5;entryY=0;entryDx=0;entryDy=0;" edge="1" parent="1" source="hi7oUq_OCCF-YMqrnlWd-17" target="hi7oUq_OCCF-YMqrnlWd-51">
          <mxGeometry relative="1" as="geometry" />
        </mxCell>
        <mxCell id="hi7oUq_OCCF-YMqrnlWd-17" value="eded=&quot;random eded&quot;" style="rounded=0;whiteSpace=wrap;html=1;" vertex="1" parent="1">
          <mxGeometry x="660" y="175" width="120" height="60" as="geometry" />
        </mxCell>
        <mxCell id="hi7oUq_OCCF-YMqrnlWd-21" style="edgeStyle=orthogonalEdgeStyle;rounded=0;orthogonalLoop=1;jettySize=auto;html=1;entryX=0.5;entryY=0;entryDx=0;entryDy=0;" edge="1" parent="1" source="hi7oUq_OCCF-YMqrnlWd-19" target="hi7oUq_OCCF-YMqrnlWd-20">
          <mxGeometry relative="1" as="geometry" />
        </mxCell>
        <mxCell id="hi7oUq_OCCF-YMqrnlWd-19" value="start" style="rounded=1;whiteSpace=wrap;html=1;" vertex="1" parent="1">
          <mxGeometry x="1409" y="9" width="120" height="60" as="geometry" />
        </mxCell>
        <mxCell id="hi7oUq_OCCF-YMqrnlWd-23" style="edgeStyle=orthogonalEdgeStyle;rounded=0;orthogonalLoop=1;jettySize=auto;html=1;" edge="1" parent="1" source="hi7oUq_OCCF-YMqrnlWd-20" target="hi7oUq_OCCF-YMqrnlWd-22">
          <mxGeometry relative="1" as="geometry" />
        </mxCell>
        <mxCell id="hi7oUq_OCCF-YMqrnlWd-20" value="number = &quot;random eded&quot;&lt;br&gt;let cavab" style="rounded=0;whiteSpace=wrap;html=1;" vertex="1" parent="1">
          <mxGeometry x="1409" y="129" width="120" height="60" as="geometry" />
        </mxCell>
        <mxCell id="hi7oUq_OCCF-YMqrnlWd-25" style="edgeStyle=orthogonalEdgeStyle;rounded=0;orthogonalLoop=1;jettySize=auto;html=1;entryX=1;entryY=0.5;entryDx=0;entryDy=0;" edge="1" parent="1" source="hi7oUq_OCCF-YMqrnlWd-22" target="hi7oUq_OCCF-YMqrnlWd-24">
          <mxGeometry relative="1" as="geometry" />
        </mxCell>
        <mxCell id="hi7oUq_OCCF-YMqrnlWd-33" style="edgeStyle=orthogonalEdgeStyle;rounded=0;orthogonalLoop=1;jettySize=auto;html=1;entryX=0;entryY=0.5;entryDx=0;entryDy=0;" edge="1" parent="1" source="hi7oUq_OCCF-YMqrnlWd-22" target="hi7oUq_OCCF-YMqrnlWd-32">
          <mxGeometry relative="1" as="geometry" />
        </mxCell>
        <mxCell id="hi7oUq_OCCF-YMqrnlWd-22" value="number&amp;lt;2" style="rhombus;whiteSpace=wrap;html=1;" vertex="1" parent="1">
          <mxGeometry x="1429" y="219" width="80" height="80" as="geometry" />
        </mxCell>
        <mxCell id="hi7oUq_OCCF-YMqrnlWd-54" style="edgeStyle=orthogonalEdgeStyle;rounded=0;orthogonalLoop=1;jettySize=auto;html=1;entryX=0;entryY=0.5;entryDx=0;entryDy=0;" edge="1" parent="1" source="hi7oUq_OCCF-YMqrnlWd-24" target="hi7oUq_OCCF-YMqrnlWd-53">
          <mxGeometry relative="1" as="geometry" />
        </mxCell>
        <mxCell id="hi7oUq_OCCF-YMqrnlWd-24" value="Ne sade ne murekkeb" style="shape=document;whiteSpace=wrap;html=1;boundedLbl=1;" vertex="1" parent="1">
          <mxGeometry x="1209" y="249" width="120" height="80" as="geometry" />
        </mxCell>
        <mxCell id="hi7oUq_OCCF-YMqrnlWd-28" value="true" style="text;html=1;strokeColor=none;fillColor=none;align=center;verticalAlign=middle;whiteSpace=wrap;rounded=0;" vertex="1" parent="1">
          <mxGeometry x="1369" y="229" width="60" height="30" as="geometry" />
        </mxCell>
        <mxCell id="hi7oUq_OCCF-YMqrnlWd-29" value="false" style="text;html=1;strokeColor=none;fillColor=none;align=center;verticalAlign=middle;whiteSpace=wrap;rounded=0;" vertex="1" parent="1">
          <mxGeometry x="1519" y="229" width="60" height="30" as="geometry" />
        </mxCell>
        <mxCell id="hi7oUq_OCCF-YMqrnlWd-55" style="edgeStyle=orthogonalEdgeStyle;rounded=0;orthogonalLoop=1;jettySize=auto;html=1;entryX=0.5;entryY=0;entryDx=0;entryDy=0;" edge="1" parent="1" source="hi7oUq_OCCF-YMqrnlWd-30" target="hi7oUq_OCCF-YMqrnlWd-53">
          <mxGeometry relative="1" as="geometry">
            <Array as="points">
              <mxPoint x="1449" y="439" />
            </Array>
          </mxGeometry>
        </mxCell>
        <mxCell id="hi7oUq_OCCF-YMqrnlWd-30" value="sade ededdir" style="shape=document;whiteSpace=wrap;html=1;boundedLbl=1;" vertex="1" parent="1">
          <mxGeometry x="1519" y="409" width="120" height="70" as="geometry" />
        </mxCell>
        <mxCell id="hi7oUq_OCCF-YMqrnlWd-39" style="edgeStyle=orthogonalEdgeStyle;rounded=0;orthogonalLoop=1;jettySize=auto;html=1;entryX=0.5;entryY=0;entryDx=0;entryDy=0;" edge="1" parent="1" source="hi7oUq_OCCF-YMqrnlWd-32" target="hi7oUq_OCCF-YMqrnlWd-38">
          <mxGeometry relative="1" as="geometry" />
        </mxCell>
        <mxCell id="hi7oUq_OCCF-YMqrnlWd-32" value="number =2" style="rhombus;whiteSpace=wrap;html=1;" vertex="1" parent="1">
          <mxGeometry x="1619" y="229" width="80" height="80" as="geometry" />
        </mxCell>
        <mxCell id="hi7oUq_OCCF-YMqrnlWd-35" value="true" style="text;html=1;strokeColor=none;fillColor=none;align=center;verticalAlign=middle;whiteSpace=wrap;rounded=0;" vertex="1" parent="1">
          <mxGeometry x="1589" y="329" width="60" height="30" as="geometry" />
        </mxCell>
        <mxCell id="hi7oUq_OCCF-YMqrnlWd-36" style="edgeStyle=orthogonalEdgeStyle;rounded=0;orthogonalLoop=1;jettySize=auto;html=1;entryX=0.567;entryY=0.025;entryDx=0;entryDy=0;entryPerimeter=0;" edge="1" parent="1" source="hi7oUq_OCCF-YMqrnlWd-32" target="hi7oUq_OCCF-YMqrnlWd-30">
          <mxGeometry relative="1" as="geometry">
            <Array as="points">
              <mxPoint x="1659" y="359" />
              <mxPoint x="1587" y="359" />
            </Array>
          </mxGeometry>
        </mxCell>
        <mxCell id="hi7oUq_OCCF-YMqrnlWd-37" value="false" style="text;html=1;strokeColor=none;fillColor=none;align=center;verticalAlign=middle;whiteSpace=wrap;rounded=0;" vertex="1" parent="1">
          <mxGeometry x="1699" y="229" width="60" height="30" as="geometry" />
        </mxCell>
        <mxCell id="hi7oUq_OCCF-YMqrnlWd-41" value="" style="edgeStyle=orthogonalEdgeStyle;rounded=0;orthogonalLoop=1;jettySize=auto;html=1;" edge="1" parent="1" source="hi7oUq_OCCF-YMqrnlWd-38" target="hi7oUq_OCCF-YMqrnlWd-40">
          <mxGeometry relative="1" as="geometry">
            <Array as="points">
              <mxPoint x="1844" y="549" />
              <mxPoint x="1664" y="549" />
            </Array>
          </mxGeometry>
        </mxCell>
        <mxCell id="hi7oUq_OCCF-YMqrnlWd-49" style="edgeStyle=orthogonalEdgeStyle;rounded=0;orthogonalLoop=1;jettySize=auto;html=1;" edge="1" parent="1" source="hi7oUq_OCCF-YMqrnlWd-38" target="hi7oUq_OCCF-YMqrnlWd-48">
          <mxGeometry relative="1" as="geometry">
            <Array as="points">
              <mxPoint x="1844" y="549" />
              <mxPoint x="1979" y="549" />
            </Array>
          </mxGeometry>
        </mxCell>
        <mxCell id="hi7oUq_OCCF-YMqrnlWd-38" value="for&lt;br&gt;let i=2&lt;br&gt;i&amp;lt;=number&lt;br&gt;i++" style="rhombus;whiteSpace=wrap;html=1;" vertex="1" parent="1">
          <mxGeometry x="1779" y="339" width="130" height="130" as="geometry" />
        </mxCell>
        <mxCell id="hi7oUq_OCCF-YMqrnlWd-56" style="edgeStyle=orthogonalEdgeStyle;rounded=0;orthogonalLoop=1;jettySize=auto;html=1;entryX=0.5;entryY=1;entryDx=0;entryDy=0;" edge="1" parent="1" source="hi7oUq_OCCF-YMqrnlWd-40" target="hi7oUq_OCCF-YMqrnlWd-53">
          <mxGeometry relative="1" as="geometry">
            <mxPoint x="1459" y="659" as="targetPoint" />
          </mxGeometry>
        </mxCell>
        <mxCell id="hi7oUq_OCCF-YMqrnlWd-40" value="number%i===0" style="rhombus;whiteSpace=wrap;html=1;" vertex="1" parent="1">
          <mxGeometry x="1659" y="689" width="130" height="130" as="geometry" />
        </mxCell>
        <mxCell id="hi7oUq_OCCF-YMqrnlWd-42" value="if" style="text;html=1;strokeColor=none;fillColor=none;align=center;verticalAlign=middle;whiteSpace=wrap;rounded=0;" vertex="1" parent="1">
          <mxGeometry x="1779" y="494" width="60" height="30" as="geometry" />
        </mxCell>
        <mxCell id="hi7oUq_OCCF-YMqrnlWd-57" style="edgeStyle=orthogonalEdgeStyle;rounded=0;orthogonalLoop=1;jettySize=auto;html=1;entryX=1;entryY=0.5;entryDx=0;entryDy=0;" edge="1" parent="1" source="hi7oUq_OCCF-YMqrnlWd-48" target="hi7oUq_OCCF-YMqrnlWd-53">
          <mxGeometry relative="1" as="geometry" />
        </mxCell>
        <mxCell id="hi7oUq_OCCF-YMqrnlWd-48" value="cavab sadedir" style="shape=document;whiteSpace=wrap;html=1;boundedLbl=1;" vertex="1" parent="1">
          <mxGeometry x="1909" y="629" width="120" height="80" as="geometry" />
        </mxCell>
        <mxCell id="hi7oUq_OCCF-YMqrnlWd-50" value="else" style="text;html=1;strokeColor=none;fillColor=none;align=center;verticalAlign=middle;whiteSpace=wrap;rounded=0;" vertex="1" parent="1">
          <mxGeometry x="1869" y="504" width="60" height="30" as="geometry" />
        </mxCell>
        <mxCell id="hi7oUq_OCCF-YMqrnlWd-59" style="edgeStyle=orthogonalEdgeStyle;rounded=0;orthogonalLoop=1;jettySize=auto;html=1;" edge="1" parent="1" source="hi7oUq_OCCF-YMqrnlWd-51" target="hi7oUq_OCCF-YMqrnlWd-58">
          <mxGeometry relative="1" as="geometry" />
        </mxCell>
        <mxCell id="hi7oUq_OCCF-YMqrnlWd-64" style="edgeStyle=orthogonalEdgeStyle;rounded=0;orthogonalLoop=1;jettySize=auto;html=1;" edge="1" parent="1" source="hi7oUq_OCCF-YMqrnlWd-51" target="hi7oUq_OCCF-YMqrnlWd-60">
          <mxGeometry relative="1" as="geometry" />
        </mxCell>
        <mxCell id="hi7oUq_OCCF-YMqrnlWd-51" value="eded&amp;lt;2" style="rhombus;whiteSpace=wrap;html=1;" vertex="1" parent="1">
          <mxGeometry x="680" y="315" width="80" height="80" as="geometry" />
        </mxCell>
        <mxCell id="hi7oUq_OCCF-YMqrnlWd-53" value="end" style="rounded=0;whiteSpace=wrap;html=1;" vertex="1" parent="1">
          <mxGeometry x="1389" y="589" width="120" height="60" as="geometry" />
        </mxCell>
        <mxCell id="hi7oUq_OCCF-YMqrnlWd-83" style="edgeStyle=orthogonalEdgeStyle;rounded=0;orthogonalLoop=1;jettySize=auto;html=1;entryX=0;entryY=0.5;entryDx=0;entryDy=0;" edge="1" parent="1" source="hi7oUq_OCCF-YMqrnlWd-58" target="hi7oUq_OCCF-YMqrnlWd-82">
          <mxGeometry relative="1" as="geometry" />
        </mxCell>
        <mxCell id="hi7oUq_OCCF-YMqrnlWd-58" value="2nin quvveti deyil" style="shape=document;whiteSpace=wrap;html=1;boundedLbl=1;" vertex="1" parent="1">
          <mxGeometry x="530" y="460" width="120" height="80" as="geometry" />
        </mxCell>
        <mxCell id="hi7oUq_OCCF-YMqrnlWd-66" style="edgeStyle=orthogonalEdgeStyle;rounded=0;orthogonalLoop=1;jettySize=auto;html=1;entryX=0.5;entryY=0;entryDx=0;entryDy=0;" edge="1" parent="1" source="hi7oUq_OCCF-YMqrnlWd-60" target="hi7oUq_OCCF-YMqrnlWd-65">
          <mxGeometry relative="1" as="geometry" />
        </mxCell>
        <mxCell id="hi7oUq_OCCF-YMqrnlWd-72" style="edgeStyle=orthogonalEdgeStyle;rounded=0;orthogonalLoop=1;jettySize=auto;html=1;entryX=1;entryY=0.5;entryDx=0;entryDy=0;" edge="1" parent="1" source="hi7oUq_OCCF-YMqrnlWd-60" target="hi7oUq_OCCF-YMqrnlWd-71">
          <mxGeometry relative="1" as="geometry">
            <mxPoint x="1150" y="930" as="targetPoint" />
            <Array as="points">
              <mxPoint x="905" y="220" />
              <mxPoint x="906" y="220" />
              <mxPoint x="906" y="210" />
              <mxPoint x="1150" y="210" />
              <mxPoint x="1150" y="710" />
            </Array>
          </mxGeometry>
        </mxCell>
        <mxCell id="hi7oUq_OCCF-YMqrnlWd-77" style="edgeStyle=orthogonalEdgeStyle;rounded=0;orthogonalLoop=1;jettySize=auto;html=1;exitX=0.5;exitY=0;exitDx=0;exitDy=0;" edge="1" parent="1" source="hi7oUq_OCCF-YMqrnlWd-60" target="hi7oUq_OCCF-YMqrnlWd-79">
          <mxGeometry relative="1" as="geometry">
            <mxPoint x="990" y="290" as="sourcePoint" />
            <mxPoint x="1149" y="850" as="targetPoint" />
            <Array as="points">
              <mxPoint x="905" y="210" />
              <mxPoint x="1150" y="210" />
              <mxPoint x="1150" y="830" />
              <mxPoint x="1149" y="830" />
            </Array>
          </mxGeometry>
        </mxCell>
        <mxCell id="hi7oUq_OCCF-YMqrnlWd-60" value="eded&amp;gt;1&lt;br&gt;eded%2===0" style="rhombus;whiteSpace=wrap;html=1;" vertex="1" parent="1">
          <mxGeometry x="830" y="270" width="150" height="160" as="geometry" />
        </mxCell>
        <mxCell id="hi7oUq_OCCF-YMqrnlWd-61" value="true" style="text;html=1;strokeColor=none;fillColor=none;align=center;verticalAlign=middle;whiteSpace=wrap;rounded=0;" vertex="1" parent="1">
          <mxGeometry x="620" y="329" width="60" height="30" as="geometry" />
        </mxCell>
        <mxCell id="hi7oUq_OCCF-YMqrnlWd-63" value="false" style="text;html=1;strokeColor=none;fillColor=none;align=center;verticalAlign=middle;whiteSpace=wrap;rounded=0;" vertex="1" parent="1">
          <mxGeometry x="770" y="320" width="60" height="30" as="geometry" />
        </mxCell>
        <mxCell id="hi7oUq_OCCF-YMqrnlWd-70" style="edgeStyle=orthogonalEdgeStyle;rounded=0;orthogonalLoop=1;jettySize=auto;html=1;entryX=1;entryY=0.5;entryDx=0;entryDy=0;" edge="1" parent="1" source="hi7oUq_OCCF-YMqrnlWd-65" target="hi7oUq_OCCF-YMqrnlWd-60">
          <mxGeometry relative="1" as="geometry">
            <Array as="points">
              <mxPoint x="1000" y="520" />
              <mxPoint x="1000" y="350" />
            </Array>
          </mxGeometry>
        </mxCell>
        <mxCell id="hi7oUq_OCCF-YMqrnlWd-65" value="eded/=2" style="rounded=0;whiteSpace=wrap;html=1;" vertex="1" parent="1">
          <mxGeometry x="845" y="494" width="120" height="60" as="geometry" />
        </mxCell>
        <mxCell id="hi7oUq_OCCF-YMqrnlWd-71" value="eded===1" style="rhombus;whiteSpace=wrap;html=1;" vertex="1" parent="1">
          <mxGeometry x="830" y="670" width="80" height="80" as="geometry" />
        </mxCell>
        <mxCell id="hi7oUq_OCCF-YMqrnlWd-73" value="if" style="text;html=1;strokeColor=none;fillColor=none;align=center;verticalAlign=middle;whiteSpace=wrap;rounded=0;" vertex="1" parent="1">
          <mxGeometry x="940" y="679" width="60" height="30" as="geometry" />
        </mxCell>
        <mxCell id="hi7oUq_OCCF-YMqrnlWd-85" style="edgeStyle=orthogonalEdgeStyle;rounded=0;orthogonalLoop=1;jettySize=auto;html=1;entryX=1;entryY=0.5;entryDx=0;entryDy=0;" edge="1" parent="1" source="hi7oUq_OCCF-YMqrnlWd-74" target="hi7oUq_OCCF-YMqrnlWd-82">
          <mxGeometry relative="1" as="geometry" />
        </mxCell>
        <mxCell id="hi7oUq_OCCF-YMqrnlWd-74" value="2-nin quvvetidir" style="shape=document;whiteSpace=wrap;html=1;boundedLbl=1;" vertex="1" parent="1">
          <mxGeometry x="800" y="840" width="120" height="80" as="geometry" />
        </mxCell>
        <mxCell id="hi7oUq_OCCF-YMqrnlWd-75" style="edgeStyle=orthogonalEdgeStyle;rounded=0;orthogonalLoop=1;jettySize=auto;html=1;entryX=0.59;entryY=0.03;entryDx=0;entryDy=0;entryPerimeter=0;" edge="1" parent="1" source="hi7oUq_OCCF-YMqrnlWd-71" target="hi7oUq_OCCF-YMqrnlWd-74">
          <mxGeometry relative="1" as="geometry" />
        </mxCell>
        <mxCell id="hi7oUq_OCCF-YMqrnlWd-84" style="edgeStyle=orthogonalEdgeStyle;rounded=0;orthogonalLoop=1;jettySize=auto;html=1;entryX=0.5;entryY=1;entryDx=0;entryDy=0;" edge="1" parent="1" source="hi7oUq_OCCF-YMqrnlWd-79" target="hi7oUq_OCCF-YMqrnlWd-82">
          <mxGeometry relative="1" as="geometry">
            <Array as="points">
              <mxPoint x="1140" y="990" />
              <mxPoint x="680" y="990" />
            </Array>
          </mxGeometry>
        </mxCell>
        <mxCell id="hi7oUq_OCCF-YMqrnlWd-79" value="2-nin quvveti deyil" style="shape=document;whiteSpace=wrap;html=1;boundedLbl=1;" vertex="1" parent="1">
          <mxGeometry x="1080" y="870" width="120" height="80" as="geometry" />
        </mxCell>
        <mxCell id="hi7oUq_OCCF-YMqrnlWd-80" value="else" style="text;html=1;strokeColor=none;fillColor=none;align=center;verticalAlign=middle;whiteSpace=wrap;rounded=0;" vertex="1" parent="1">
          <mxGeometry x="1090" y="789" width="60" height="30" as="geometry" />
        </mxCell>
        <mxCell id="hi7oUq_OCCF-YMqrnlWd-81" style="edgeStyle=orthogonalEdgeStyle;rounded=0;orthogonalLoop=1;jettySize=auto;html=1;exitX=0.5;exitY=1;exitDx=0;exitDy=0;" edge="1" parent="1" source="hi7oUq_OCCF-YMqrnlWd-80" target="hi7oUq_OCCF-YMqrnlWd-80">
          <mxGeometry relative="1" as="geometry" />
        </mxCell>
        <mxCell id="hi7oUq_OCCF-YMqrnlWd-82" value="end" style="rounded=0;whiteSpace=wrap;html=1;" vertex="1" parent="1">
          <mxGeometry x="620" y="709" width="120" height="60" as="geometry" />
        </mxCell>
        <mxCell id="hi7oUq_OCCF-YMqrnlWd-88" style="edgeStyle=orthogonalEdgeStyle;rounded=0;orthogonalLoop=1;jettySize=auto;html=1;" edge="1" parent="1" source="hi7oUq_OCCF-YMqrnlWd-86" target="hi7oUq_OCCF-YMqrnlWd-87">
          <mxGeometry relative="1" as="geometry" />
        </mxCell>
        <mxCell id="hi7oUq_OCCF-YMqrnlWd-86" value="start" style="rounded=1;whiteSpace=wrap;html=1;" vertex="1" parent="1">
          <mxGeometry x="2330" y="9" width="120" height="60" as="geometry" />
        </mxCell>
        <mxCell id="hi7oUq_OCCF-YMqrnlWd-90" style="edgeStyle=orthogonalEdgeStyle;rounded=0;orthogonalLoop=1;jettySize=auto;html=1;entryX=0.5;entryY=0;entryDx=0;entryDy=0;" edge="1" parent="1" source="hi7oUq_OCCF-YMqrnlWd-87" target="hi7oUq_OCCF-YMqrnlWd-89">
          <mxGeometry relative="1" as="geometry" />
        </mxCell>
        <mxCell id="hi7oUq_OCCF-YMqrnlWd-87" value="ay=prompt(&quot;ay daxil edin&quot;)" style="rounded=0;whiteSpace=wrap;html=1;" vertex="1" parent="1">
          <mxGeometry x="2330" y="135" width="120" height="60" as="geometry" />
        </mxCell>
        <mxCell id="hi7oUq_OCCF-YMqrnlWd-95" style="edgeStyle=orthogonalEdgeStyle;rounded=0;orthogonalLoop=1;jettySize=auto;html=1;" edge="1" parent="1" source="hi7oUq_OCCF-YMqrnlWd-89" target="hi7oUq_OCCF-YMqrnlWd-91">
          <mxGeometry relative="1" as="geometry" />
        </mxCell>
        <mxCell id="hi7oUq_OCCF-YMqrnlWd-96" style="edgeStyle=orthogonalEdgeStyle;rounded=0;orthogonalLoop=1;jettySize=auto;html=1;entryX=0.5;entryY=0;entryDx=0;entryDy=0;" edge="1" parent="1" source="hi7oUq_OCCF-YMqrnlWd-89" target="hi7oUq_OCCF-YMqrnlWd-92">
          <mxGeometry relative="1" as="geometry">
            <Array as="points">
              <mxPoint x="2320" y="289" />
            </Array>
          </mxGeometry>
        </mxCell>
        <mxCell id="hi7oUq_OCCF-YMqrnlWd-97" style="edgeStyle=orthogonalEdgeStyle;rounded=0;orthogonalLoop=1;jettySize=auto;html=1;entryX=0.5;entryY=0;entryDx=0;entryDy=0;" edge="1" parent="1" source="hi7oUq_OCCF-YMqrnlWd-89" target="hi7oUq_OCCF-YMqrnlWd-94">
          <mxGeometry relative="1" as="geometry" />
        </mxCell>
        <mxCell id="hi7oUq_OCCF-YMqrnlWd-98" style="edgeStyle=orthogonalEdgeStyle;rounded=0;orthogonalLoop=1;jettySize=auto;html=1;entryX=0.5;entryY=0;entryDx=0;entryDy=0;" edge="1" parent="1" source="hi7oUq_OCCF-YMqrnlWd-89" target="hi7oUq_OCCF-YMqrnlWd-93">
          <mxGeometry relative="1" as="geometry" />
        </mxCell>
        <mxCell id="hi7oUq_OCCF-YMqrnlWd-89" value="switch (ay)" style="rounded=1;whiteSpace=wrap;html=1;" vertex="1" parent="1">
          <mxGeometry x="2330" y="259" width="120" height="60" as="geometry" />
        </mxCell>
        <mxCell id="hi7oUq_OCCF-YMqrnlWd-104" style="edgeStyle=orthogonalEdgeStyle;rounded=0;orthogonalLoop=1;jettySize=auto;html=1;entryX=0.5;entryY=0;entryDx=0;entryDy=0;" edge="1" parent="1" source="hi7oUq_OCCF-YMqrnlWd-91" target="hi7oUq_OCCF-YMqrnlWd-99">
          <mxGeometry relative="1" as="geometry" />
        </mxCell>
        <mxCell id="hi7oUq_OCCF-YMqrnlWd-91" value="&quot;dekabr&quot;&lt;br&gt;&quot;yanvar&quot;&lt;br&gt;&quot;fevral&quot;" style="rhombus;whiteSpace=wrap;html=1;" vertex="1" parent="1">
          <mxGeometry x="2090" y="364" width="100" height="96" as="geometry" />
        </mxCell>
        <mxCell id="hi7oUq_OCCF-YMqrnlWd-103" style="edgeStyle=orthogonalEdgeStyle;rounded=0;orthogonalLoop=1;jettySize=auto;html=1;" edge="1" parent="1" source="hi7oUq_OCCF-YMqrnlWd-92" target="hi7oUq_OCCF-YMqrnlWd-101">
          <mxGeometry relative="1" as="geometry" />
        </mxCell>
        <mxCell id="hi7oUq_OCCF-YMqrnlWd-92" value="&lt;br&gt;&lt;span style=&quot;color: rgb(0, 0, 0); font-family: Helvetica; font-size: 12px; font-style: normal; font-variant-ligatures: normal; font-variant-caps: normal; font-weight: 400; letter-spacing: normal; orphans: 2; text-align: center; text-indent: 0px; text-transform: none; widows: 2; word-spacing: 0px; -webkit-text-stroke-width: 0px; background-color: rgb(251, 251, 251); text-decoration-thickness: initial; text-decoration-style: initial; text-decoration-color: initial; float: none; display: inline !important;&quot;&gt;&quot;martr&quot;&lt;/span&gt;&lt;br style=&quot;border-color: var(--border-color); color: rgb(0, 0, 0); font-family: Helvetica; font-size: 12px; font-style: normal; font-variant-ligatures: normal; font-variant-caps: normal; font-weight: 400; letter-spacing: normal; orphans: 2; text-align: center; text-indent: 0px; text-transform: none; widows: 2; word-spacing: 0px; -webkit-text-stroke-width: 0px; background-color: rgb(251, 251, 251); text-decoration-thickness: initial; text-decoration-style: initial; text-decoration-color: initial;&quot;&gt;&lt;span style=&quot;color: rgb(0, 0, 0); font-family: Helvetica; font-size: 12px; font-style: normal; font-variant-ligatures: normal; font-variant-caps: normal; font-weight: 400; letter-spacing: normal; orphans: 2; text-align: center; text-indent: 0px; text-transform: none; widows: 2; word-spacing: 0px; -webkit-text-stroke-width: 0px; background-color: rgb(251, 251, 251); text-decoration-thickness: initial; text-decoration-style: initial; text-decoration-color: initial; float: none; display: inline !important;&quot;&gt;&quot;aprel&quot;&lt;/span&gt;&lt;br style=&quot;border-color: var(--border-color); color: rgb(0, 0, 0); font-family: Helvetica; font-size: 12px; font-style: normal; font-variant-ligatures: normal; font-variant-caps: normal; font-weight: 400; letter-spacing: normal; orphans: 2; text-align: center; text-indent: 0px; text-transform: none; widows: 2; word-spacing: 0px; -webkit-text-stroke-width: 0px; background-color: rgb(251, 251, 251); text-decoration-thickness: initial; text-decoration-style: initial; text-decoration-color: initial;&quot;&gt;&lt;span style=&quot;color: rgb(0, 0, 0); font-family: Helvetica; font-size: 12px; font-style: normal; font-variant-ligatures: normal; font-variant-caps: normal; font-weight: 400; letter-spacing: normal; orphans: 2; text-align: center; text-indent: 0px; text-transform: none; widows: 2; word-spacing: 0px; -webkit-text-stroke-width: 0px; background-color: rgb(251, 251, 251); text-decoration-thickness: initial; text-decoration-style: initial; text-decoration-color: initial; float: none; display: inline !important;&quot;&gt;&quot;may&quot;&lt;/span&gt;" style="rhombus;whiteSpace=wrap;html=1;" vertex="1" parent="1">
          <mxGeometry x="2240" y="350" width="110" height="100" as="geometry" />
        </mxCell>
        <mxCell id="hi7oUq_OCCF-YMqrnlWd-107" style="edgeStyle=orthogonalEdgeStyle;rounded=0;orthogonalLoop=1;jettySize=auto;html=1;" edge="1" parent="1" source="hi7oUq_OCCF-YMqrnlWd-93" target="hi7oUq_OCCF-YMqrnlWd-100">
          <mxGeometry relative="1" as="geometry">
            <Array as="points">
              <mxPoint x="2480" y="520" />
              <mxPoint x="2480" y="520" />
            </Array>
          </mxGeometry>
        </mxCell>
        <mxCell id="hi7oUq_OCCF-YMqrnlWd-93" value="&lt;br&gt;&lt;span style=&quot;color: rgb(0, 0, 0); font-family: Helvetica; font-size: 12px; font-style: normal; font-variant-ligatures: normal; font-variant-caps: normal; font-weight: 400; letter-spacing: normal; orphans: 2; text-align: center; text-indent: 0px; text-transform: none; widows: 2; word-spacing: 0px; -webkit-text-stroke-width: 0px; background-color: rgb(251, 251, 251); text-decoration-thickness: initial; text-decoration-style: initial; text-decoration-color: initial; float: none; display: inline !important;&quot;&gt;&quot;iyun&quot;&lt;/span&gt;&lt;br style=&quot;border-color: var(--border-color); color: rgb(0, 0, 0); font-family: Helvetica; font-size: 12px; font-style: normal; font-variant-ligatures: normal; font-variant-caps: normal; font-weight: 400; letter-spacing: normal; orphans: 2; text-align: center; text-indent: 0px; text-transform: none; widows: 2; word-spacing: 0px; -webkit-text-stroke-width: 0px; background-color: rgb(251, 251, 251); text-decoration-thickness: initial; text-decoration-style: initial; text-decoration-color: initial;&quot;&gt;&lt;span style=&quot;color: rgb(0, 0, 0); font-family: Helvetica; font-size: 12px; font-style: normal; font-variant-ligatures: normal; font-variant-caps: normal; font-weight: 400; letter-spacing: normal; orphans: 2; text-align: center; text-indent: 0px; text-transform: none; widows: 2; word-spacing: 0px; -webkit-text-stroke-width: 0px; background-color: rgb(251, 251, 251); text-decoration-thickness: initial; text-decoration-style: initial; text-decoration-color: initial; float: none; display: inline !important;&quot;&gt;&quot;iyul&quot;&lt;/span&gt;&lt;br style=&quot;border-color: var(--border-color); color: rgb(0, 0, 0); font-family: Helvetica; font-size: 12px; font-style: normal; font-variant-ligatures: normal; font-variant-caps: normal; font-weight: 400; letter-spacing: normal; orphans: 2; text-align: center; text-indent: 0px; text-transform: none; widows: 2; word-spacing: 0px; -webkit-text-stroke-width: 0px; background-color: rgb(251, 251, 251); text-decoration-thickness: initial; text-decoration-style: initial; text-decoration-color: initial;&quot;&gt;&lt;span style=&quot;color: rgb(0, 0, 0); font-family: Helvetica; font-size: 12px; font-style: normal; font-variant-ligatures: normal; font-variant-caps: normal; font-weight: 400; letter-spacing: normal; orphans: 2; text-align: center; text-indent: 0px; text-transform: none; widows: 2; word-spacing: 0px; -webkit-text-stroke-width: 0px; background-color: rgb(251, 251, 251); text-decoration-thickness: initial; text-decoration-style: initial; text-decoration-color: initial; float: none; display: inline !important;&quot;&gt;&quot;avqust&quot;&lt;/span&gt;&lt;br&gt;" style="rhombus;whiteSpace=wrap;html=1;" vertex="1" parent="1">
          <mxGeometry x="2430" y="364" width="100" height="96" as="geometry" />
        </mxCell>
        <mxCell id="hi7oUq_OCCF-YMqrnlWd-108" style="edgeStyle=orthogonalEdgeStyle;rounded=0;orthogonalLoop=1;jettySize=auto;html=1;" edge="1" parent="1" source="hi7oUq_OCCF-YMqrnlWd-94" target="hi7oUq_OCCF-YMqrnlWd-102">
          <mxGeometry relative="1" as="geometry" />
        </mxCell>
        <mxCell id="hi7oUq_OCCF-YMqrnlWd-94" value="&lt;br&gt;&lt;span style=&quot;color: rgb(0, 0, 0); font-family: Helvetica; font-size: 12px; font-style: normal; font-variant-ligatures: normal; font-variant-caps: normal; font-weight: 400; letter-spacing: normal; orphans: 2; text-align: center; text-indent: 0px; text-transform: none; widows: 2; word-spacing: 0px; -webkit-text-stroke-width: 0px; background-color: rgb(251, 251, 251); text-decoration-thickness: initial; text-decoration-style: initial; text-decoration-color: initial; float: none; display: inline !important;&quot;&gt;&quot;sentyabr&quot;&lt;/span&gt;&lt;br style=&quot;border-color: var(--border-color); color: rgb(0, 0, 0); font-family: Helvetica; font-size: 12px; font-style: normal; font-variant-ligatures: normal; font-variant-caps: normal; font-weight: 400; letter-spacing: normal; orphans: 2; text-align: center; text-indent: 0px; text-transform: none; widows: 2; word-spacing: 0px; -webkit-text-stroke-width: 0px; background-color: rgb(251, 251, 251); text-decoration-thickness: initial; text-decoration-style: initial; text-decoration-color: initial;&quot;&gt;&lt;span style=&quot;color: rgb(0, 0, 0); font-family: Helvetica; font-size: 12px; font-style: normal; font-variant-ligatures: normal; font-variant-caps: normal; font-weight: 400; letter-spacing: normal; orphans: 2; text-align: center; text-indent: 0px; text-transform: none; widows: 2; word-spacing: 0px; -webkit-text-stroke-width: 0px; background-color: rgb(251, 251, 251); text-decoration-thickness: initial; text-decoration-style: initial; text-decoration-color: initial; float: none; display: inline !important;&quot;&gt;&quot;oktyabr&quot;&lt;/span&gt;&lt;br style=&quot;border-color: var(--border-color); color: rgb(0, 0, 0); font-family: Helvetica; font-size: 12px; font-style: normal; font-variant-ligatures: normal; font-variant-caps: normal; font-weight: 400; letter-spacing: normal; orphans: 2; text-align: center; text-indent: 0px; text-transform: none; widows: 2; word-spacing: 0px; -webkit-text-stroke-width: 0px; background-color: rgb(251, 251, 251); text-decoration-thickness: initial; text-decoration-style: initial; text-decoration-color: initial;&quot;&gt;&lt;span style=&quot;color: rgb(0, 0, 0); font-family: Helvetica; font-size: 12px; font-style: normal; font-variant-ligatures: normal; font-variant-caps: normal; font-weight: 400; letter-spacing: normal; orphans: 2; text-align: center; text-indent: 0px; text-transform: none; widows: 2; word-spacing: 0px; -webkit-text-stroke-width: 0px; background-color: rgb(251, 251, 251); text-decoration-thickness: initial; text-decoration-style: initial; text-decoration-color: initial; float: none; display: inline !important;&quot;&gt;&quot;noyabr&quot;&lt;/span&gt;&lt;br&gt;" style="rhombus;whiteSpace=wrap;html=1;" vertex="1" parent="1">
          <mxGeometry x="2560" y="352" width="110" height="120" as="geometry" />
        </mxCell>
        <mxCell id="hi7oUq_OCCF-YMqrnlWd-99" value="&quot;qis ayidir&quot;" style="shape=document;whiteSpace=wrap;html=1;boundedLbl=1;" vertex="1" parent="1">
          <mxGeometry x="2080" y="509" width="120" height="80" as="geometry" />
        </mxCell>
        <mxCell id="hi7oUq_OCCF-YMqrnlWd-100" value="&quot;yay ayidir&quot;" style="shape=document;whiteSpace=wrap;html=1;boundedLbl=1;" vertex="1" parent="1">
          <mxGeometry x="2410" y="534" width="120" height="80" as="geometry" />
        </mxCell>
        <mxCell id="hi7oUq_OCCF-YMqrnlWd-101" value="&quot;yaz ayidir&quot;" style="shape=document;whiteSpace=wrap;html=1;boundedLbl=1;" vertex="1" parent="1">
          <mxGeometry x="2235" y="520" width="120" height="80" as="geometry" />
        </mxCell>
        <mxCell id="hi7oUq_OCCF-YMqrnlWd-102" value="" style="shape=document;whiteSpace=wrap;html=1;boundedLbl=1;" vertex="1" parent="1">
          <mxGeometry x="2555" y="534" width="120" height="80" as="geometry" />
        </mxCell>
      </root>
    </mxGraphModel>
  </diagram>
</mxfile>
